<svg id="Layer_1" data-name="Layer 1" xmlns="http://www.w3.org/2000/svg" viewBox="0 0 291.6 291.6"><defs><style>.cls-1{fill:none;stroke:#2b4156;stroke-miterlimit:10;stroke-width:4px;}.cls-2{fill:#2b4156;}</style></defs><circle class="cls-1" cx="145.8" cy="145.8" r="143.8"/><circle class="cls-1" cx="145.8" cy="145.8" r="104.07"/><path class="cls-2" d="M63.64,37.07l.41.54a5.84,5.84,0,0,0-1.23,1.25A1.29,1.29,0,0,0,62.68,40a6.32,6.32,0,0,0,1,1.58L74,55.07a5.25,5.25,0,0,0,1.14,1.19,1,1,0,0,0,1,.15,4.75,4.75,0,0,0,1.25-.74l1.53-1.17a5.37,5.37,0,0,0,1.55-1.78A5.14,5.14,0,0,0,81,50.57a7.59,7.59,0,0,0-.4-2.52,13.86,13.86,0,0,0-1.3-2.8l.62-.48a28.31,28.31,0,0,0,1.68,2.37c.3.39.74,1,1.33,1.66S84.1,50.23,84.78,51c-.94.66-2,1.42-3.14,2.29s-2.17,1.64-3.06,2.32L77,56.82c-.67.5-1.38,1.06-2.15,1.66l-2.34,1.83c-.79.61-1.53,1.2-2.23,1.77l-.41-.54A6.16,6.16,0,0,0,71,60.31a1.14,1.14,0,0,0,.1-1.09,6.69,6.69,0,0,0-1-1.56L60,44.38A6.84,6.84,0,0,0,58.71,43a1.26,1.26,0,0,0-1.09-.2,5.12,5.12,0,0,0-1.47.82l-.41-.54c.46-.32,1-.74,1.75-1.26s1.47-1.07,2.27-1.69,1.45-1.12,2.15-1.68S63.19,37.45,63.64,37.07Z" transform="translate(1.8 1.8)"/><path class="cls-2" d="M108.91,14.69c.21.9.44,1.76.68,2.59s.44,1.46.58,1.89.28.79.43,1.15l.38.92-.73.25a12.8,12.8,0,0,0-2-3.18A4,4,0,0,0,106.09,17a5.54,5.54,0,0,0-2.71.34l-1.76.59a5.23,5.23,0,0,0-1.43.66,1.08,1.08,0,0,0-.45.9,5.45,5.45,0,0,0,.36,1.62l5.52,16.35a5.48,5.48,0,0,0,.71,1.51,1,1,0,0,0,.9.44,5.41,5.41,0,0,0,1.54-.34l1.82-.61A6,6,0,0,0,113.11,37a4.55,4.55,0,0,0,1.1-2.6,13.81,13.81,0,0,0-.3-4.15l.74-.25a26.5,26.5,0,0,0,.76,2.59c.15.45.39,1.09.71,1.93s.68,1.71,1.07,2.59c-1.1.33-2.33.71-3.7,1.16l-3.65,1.22-2,.66-2.56.89-2.79,1-2.68.95-.22-.63a6.62,6.62,0,0,0,1.5-.79,1.19,1.19,0,0,0,.44-1,6.51,6.51,0,0,0-.41-1.78L95.81,22.89A6.4,6.4,0,0,0,95,21.21a1.19,1.19,0,0,0-1-.53,5.37,5.37,0,0,0-1.66.29l-.21-.64,2.71-.86,2.82-.92,2.58-.85,2-.66c1-.33,2.09-.71,3.33-1.15S107.94,15.06,108.91,14.69Zm-1.45,12.66.21.64L102,29.91l-.22-.64Zm-.5-4.53c.32,1.24.6,2.18.83,2.81s.43,1.22.61,1.76.39,1.11.62,1.74.61,1.54,1.1,2.73l-.73.24a12.87,12.87,0,0,0-1.19-1.89A3.77,3.77,0,0,0,106.61,29a3.37,3.37,0,0,0-2.26.11l-.21-.64a3,3,0,0,0,1.47-1,3.35,3.35,0,0,0,.64-1.41,6.41,6.41,0,0,0,.13-1.57,9.06,9.06,0,0,0-.16-1.46Z" transform="translate(1.8 1.8)"/><path class="cls-2" d="M145.51,10.15l8.11,21.17A4.12,4.12,0,0,0,154.71,33a2.08,2.08,0,0,0,1.09.49v.68c-.58-.05-1.29-.08-2.11-.1l-2.51,0h-2.76c-.86,0-1.55,0-2.09.08v-.68a3.24,3.24,0,0,0,2.19-.58c.32-.35.25-1.09-.19-2.24l-5.87-16,.61-.74-5.45,14a13.1,13.1,0,0,0-.79,2.76,2.94,2.94,0,0,0,.17,1.69,1.72,1.72,0,0,0,1,.86,6,6,0,0,0,1.75.3v.67c-.72-.05-1.41-.08-2.09-.09s-1.35,0-2,0h-1.4c-.44,0-.82,0-1.16.08V33.4a3.18,3.18,0,0,0,1.47-.87A7.22,7.22,0,0,0,136,30.07l7.8-19.92c.27,0,.56,0,.88,0A8.05,8.05,0,0,0,145.51,10.15Zm2.88,14.28v.67l-10,0,.34-.67Z" transform="translate(1.8 1.8)"/><path class="cls-2" d="M187.05,16.94a8,8,0,0,1,2.61,1.33A11.24,11.24,0,0,1,191,19.66c.2.24.37.42.5.55a1.19,1.19,0,0,0,.43.27.52.52,0,0,0,.58-.19,5.64,5.64,0,0,0,.6-1l.73.25c-.16.4-.34.85-.56,1.38s-.48,1.22-.79,2.09-.72,2.05-1.21,3.49l-.74-.25a10.12,10.12,0,0,0,.36-3.37,6.88,6.88,0,0,0-.91-3.08,4.52,4.52,0,0,0-2.55-2,4,4,0,0,0-2.92,0A3.36,3.36,0,0,0,182.67,20a3.94,3.94,0,0,0-.1,2.48,8.16,8.16,0,0,0,1.3,2.4c.62.85,1.38,1.82,2.26,2.93s1.51,2,2.11,3a8.72,8.72,0,0,1,1.2,2.89,6.07,6.07,0,0,1-.3,3.21,5.92,5.92,0,0,1-2.2,3.09,6.4,6.4,0,0,1-3.44,1.11,11.07,11.07,0,0,1-4-.62,9.64,9.64,0,0,1-2.85-1.41A15.47,15.47,0,0,1,175,37.66a2.4,2.4,0,0,0-.93-.81.5.5,0,0,0-.58.19,4.36,4.36,0,0,0-.6,1l-.74-.25c.21-.48.44-1,.67-1.7s.54-1.5.91-2.55.84-2.39,1.39-4l.74.25a15.39,15.39,0,0,0-.59,4.06,6.85,6.85,0,0,0,.84,3.48,5,5,0,0,0,2.9,2.2,5.3,5.3,0,0,0,2.16.29,3.33,3.33,0,0,0,1.87-.74,4.13,4.13,0,0,0,1.28-2,4.51,4.51,0,0,0,.18-2.5,7.5,7.5,0,0,0-1.05-2.43,28,28,0,0,0-1.95-2.63c-.78-1-1.5-1.95-2.14-2.91a8.57,8.57,0,0,1-1.32-3,6,6,0,0,1,.26-3.31,5.46,5.46,0,0,1,2.07-2.91,5.89,5.89,0,0,1,3.14-1A9.51,9.51,0,0,1,187.05,16.94Z" transform="translate(1.8 1.8)"/><path class="cls-2" d="M231.41,42.45c-.63.68-1.22,1.35-1.77,2s-1,1.19-1.23,1.54-.49.68-.71,1-.41.61-.55.84l-.62-.47A12.47,12.47,0,0,0,228,43.94a3.93,3.93,0,0,0-.16-2.5,5.61,5.61,0,0,0-1.8-2.06l-1.48-1.12a5.61,5.61,0,0,0-1.35-.81,1,1,0,0,0-1,.14,5.33,5.33,0,0,0-1.15,1.2L210.69,52.55a5.43,5.43,0,0,0-.85,1.43,1.08,1.08,0,0,0,.13,1,5.6,5.6,0,0,0,1.15,1.08l1.54,1.16a5.91,5.91,0,0,0,2.68,1.23,4.5,4.5,0,0,0,2.76-.55,13.28,13.28,0,0,0,3.27-2.58l.62.47a25.29,25.29,0,0,0-1.71,2.09c-.29.37-.69.93-1.2,1.67s-1,1.52-1.55,2.34c-.88-.73-1.9-1.53-3-2.41l-3.05-2.33-1.65-1.25-2.17-1.63-2.38-1.75c-.8-.6-1.57-1.16-2.3-1.68l.41-.54a6.46,6.46,0,0,0,1.49.79,1.15,1.15,0,0,0,1.08-.2,6.6,6.6,0,0,0,1.25-1.33l10.1-13.33a6.84,6.84,0,0,0,1-1.58,1.23,1.23,0,0,0-.1-1.09A5.17,5.17,0,0,0,217,32.34l.41-.54c.7.56,1.44,1.15,2.24,1.76l2.34,1.82L224.09,37l1.64,1.24,2.82,2.12C229.61,41.17,230.56,41.86,231.41,42.45Zm-11.29,5.91-.41.54-4.78-3.63.41-.53Zm3.47-3c-.85,1-1.47,1.73-1.87,2.27s-.76,1-1.1,1.49-.71,1-1.1,1.5-.93,1.36-1.63,2.44l-.62-.47a12.66,12.66,0,0,0,.9-2.05,3.68,3.68,0,0,0,.11-2,3.39,3.39,0,0,0-1.36-1.81l.41-.54a3,3,0,0,0,1.62.68,3.39,3.39,0,0,0,1.53-.26,6,6,0,0,0,1.37-.78,12.31,12.31,0,0,0,1.12-.94Z" transform="translate(1.8 1.8)"/><path class="cls-2" d="M49.05,206.63c-.85.38-1.66.76-2.43,1.16s-1.35.71-1.74.93-.72.42-1.05.64l-.83.55-.38-.68a12.36,12.36,0,0,0,2.74-2.56,3.81,3.81,0,0,0,.84-2.36,5.66,5.66,0,0,0-.84-2.6l-.92-1.62a5.51,5.51,0,0,0-.92-1.28,1.07,1.07,0,0,0-1-.26,5.72,5.72,0,0,0-1.53.65l-15,8.52a5.43,5.43,0,0,0-1.34,1,1.06,1.06,0,0,0-.27,1,5.16,5.16,0,0,0,.63,1.44l.95,1.67A5.76,5.76,0,0,0,28,215a4.51,4.51,0,0,0,2.75.59,13.4,13.4,0,0,0,4-1.08l.38.67c-.64.29-1.43.7-2.39,1.25-.41.23-1,.58-1.76,1.06s-1.55,1-2.35,1.54c-.52-1-1.14-2.16-1.84-3.41s-1.32-2.38-1.88-3.35c-.26-.47-.61-1.07-1-1.81l-1.36-2.35L21,205.53l-1.45-2.45.58-.33a6.7,6.7,0,0,0,1.06,1.32,1.19,1.19,0,0,0,1.07.24,6.75,6.75,0,0,0,1.68-.74l14.54-8.25a6.65,6.65,0,0,0,1.5-1.07,1.2,1.2,0,0,0,.34-1,5.52,5.52,0,0,0-.6-1.58l.58-.33c.43.79.88,1.63,1.37,2.5l1.43,2.6c.47.85.91,1.64,1.33,2.37l1,1.78c.51.9,1.09,1.92,1.75,3.06S48.5,205.75,49.05,206.63Zm-8.36-.37c-1.16.55-2,1-2.61,1.34l-1.6.93c-.49.28-1,.59-1.59.95s-1.4.88-2.47,1.59L32,210.4a12.67,12.67,0,0,0,1.64-1.53,3.7,3.7,0,0,0,.89-1.79,3.33,3.33,0,0,0-.54-2.19l.59-.34a3,3,0,0,0,1.22,1.27,3.39,3.39,0,0,0,1.51.36,6.4,6.4,0,0,0,1.57-.17,11.05,11.05,0,0,0,1.4-.43Zm-4.35,1.34-.59.34-3-5.22.59-.34Z" transform="translate(1.8 1.8)"/><path class="cls-2" d="M66.07,225.63a8.11,8.11,0,0,1,1.84,2.28,10.78,10.78,0,0,1,.68,1.84c.09.3.17.53.24.71a1.15,1.15,0,0,0,.28.42.52.52,0,0,0,.61.06,5.21,5.21,0,0,0,.94-.64l.57.53-1.08,1c-.41.39-.93.92-1.58,1.6S67.08,235,66,236.13l-.57-.53a9.89,9.89,0,0,0,1.7-2.93,6.66,6.66,0,0,0,.43-3.18,4.49,4.49,0,0,0-1.52-2.83,4,4,0,0,0-2.68-1.16,3.33,3.33,0,0,0-2.59,1.17,3.92,3.92,0,0,0-1.11,2.22,8.5,8.5,0,0,0,.2,2.72c.23,1,.51,2.23.86,3.6s.55,2.47.71,3.59a9,9,0,0,1-.09,3.13,6.81,6.81,0,0,1-4.86,4.73,6.41,6.41,0,0,1-3.59-.41,10.66,10.66,0,0,1-3.39-2.2,9.68,9.68,0,0,1-2-2.45,15.39,15.39,0,0,1-.89-2,2.43,2.43,0,0,0-.51-1.13.52.52,0,0,0-.61-.06,4.47,4.47,0,0,0-1,.64l-.56-.53c.38-.35.82-.77,1.3-1.27l1.88-2,2.9-3.08.57.53a15.6,15.6,0,0,0-2.2,3.46,6.76,6.76,0,0,0-.66,3.51,5,5,0,0,0,1.74,3.2,5.5,5.5,0,0,0,1.85,1.16,3.4,3.4,0,0,0,2,.08,4.06,4.06,0,0,0,2-1.27,4.67,4.67,0,0,0,1.19-2.21,7.79,7.79,0,0,0,0-2.65,26.87,26.87,0,0,0-.71-3.19c-.31-1.22-.56-2.39-.76-3.53a8.81,8.81,0,0,1,0-3.24,6,6,0,0,1,1.6-2.92,5.48,5.48,0,0,1,3.07-1.81,6,6,0,0,1,3.28.37A9.45,9.45,0,0,1,66.07,225.63Z" transform="translate(1.8 1.8)"/><path class="cls-2" d="M103.69,250.08c-.53.89-1,1.77-1.48,2.63s-.79,1.54-1,2-.43.91-.6,1.32-.33.78-.45,1.09l-.7-.33a19.44,19.44,0,0,0,.8-4.31,4.64,4.64,0,0,0-.64-2.76,5.47,5.47,0,0,0-2.3-1.86l-1-.46L88,264.71a6.1,6.1,0,0,0-.66,2,1.44,1.44,0,0,0,.54,1.25,9.37,9.37,0,0,0,1.92,1.21l-.29.61c-.59-.34-1.36-.74-2.33-1.22l-3-1.45-3-1.41c-.93-.43-1.68-.76-2.27-1l.29-.6a9.19,9.19,0,0,0,2.12.73,1.46,1.46,0,0,0,1.33-.35,5.89,5.89,0,0,0,1.13-1.73l8.34-17.32-1-.48a5.35,5.35,0,0,0-2.87-.63,4.63,4.63,0,0,0-2.57,1.21,18.13,18.13,0,0,0-2.83,3.33l-.7-.34a10.89,10.89,0,0,0,.58-1c.21-.4.42-.84.65-1.3s.53-1.15.92-2,.78-1.83,1.15-2.8l2.91,1.47c1.07.54,2.13,1.07,3.21,1.59l2.94,1.41,2.92,1.41,3.23,1.52Z" transform="translate(1.8 1.8)"/><path class="cls-2" d="M117.49,273.74a2.71,2.71,0,0,1,1.72,1,2.52,2.52,0,0,1-.71,3.5,2.69,2.69,0,0,1-2,.28,2.63,2.63,0,0,1-1.73-1,2.31,2.31,0,0,1-.35-1.89,2.35,2.35,0,0,1,1.06-1.61A2.74,2.74,0,0,1,117.49,273.74Z" transform="translate(1.8 1.8)"/><path class="cls-2" d="M166.69,256.24q1.53-1.89,5.32-2.87a10.61,10.61,0,0,1,6.19-.1,4.92,4.92,0,0,1,3.12,3.69,7.78,7.78,0,0,1,.27,1.69,4.63,4.63,0,0,1-.34,1.72c-.25.63-.49,1.2-.75,1.71a13.51,13.51,0,0,1-1.42,2.1c-1,1.38-2.14,2.78-3.31,4.18l-2.05,2.46-1.61,1.95,7.83-2a4.53,4.53,0,0,0,2.95-1.8,6.16,6.16,0,0,0,.54-3.42l.56-.14,2,9.13-15.34,4-1-3.78,2.51-3.89a25.73,25.73,0,0,0,3.35-6.7,10.52,10.52,0,0,0,0-5.65,9,9,0,0,0-1.63-3.79,2.32,2.32,0,0,0-2.37-.52,2.53,2.53,0,0,0-1.86,1.28,2.46,2.46,0,0,0-.22,1.59,3.64,3.64,0,0,0,.51,1.16l1-.25a4.82,4.82,0,0,1,.69,1.58,2.22,2.22,0,0,1-.39,1.87,3.27,3.27,0,0,1-2,1.26,2.65,2.65,0,0,1-2.29-.33,3.36,3.36,0,0,1-1.3-2A4.45,4.45,0,0,1,166.69,256.24Z" transform="translate(1.8 1.8)"/><path class="cls-2" d="M216.61,260.59q-4.17,2.58-8.07,1.1t-7-6.52q-3.12-5-2.33-9a11,11,0,0,1,12.68-7.85q3.84,1,7.17,6.43t2.54,9.3A10,10,0,0,1,216.61,260.59Zm-9.68-9.79,1.58,2.55c1.14,1.85,2,3.15,2.47,3.9a16,16,0,0,0,1.77,2.19,2.77,2.77,0,0,0,1.82,1.08,3,3,0,0,0,1.57-.47,6.65,6.65,0,0,0,1.1-.81,1.64,1.64,0,0,0,.47-.78,4.21,4.21,0,0,0,.17-.86,2.82,2.82,0,0,0-.2-1.05c-.15-.43-.29-.83-.44-1.19a12.06,12.06,0,0,0-.77-1.5c-.72-1.25-1.46-2.5-2.23-3.74l-1.56-2.52a43.8,43.8,0,0,0-4.91-7,2.51,2.51,0,0,0-3.38-.19,2.55,2.55,0,0,0-1.34,3.16A41.58,41.58,0,0,0,206.93,250.8Z" transform="translate(1.8 1.8)"/><path class="cls-2" d="M227.24,223.08a9.81,9.81,0,0,1,2.73-5.39,10.53,10.53,0,0,1,5-3.61,4.91,4.91,0,0,1,4.67,1.24,7.52,7.52,0,0,1,1.18,1.24,4.35,4.35,0,0,1,.7,1.61c.16.66.28,1.26.37,1.82a14.37,14.37,0,0,1,0,2.55c-.07,1.72-.18,3.5-.34,5.32s-.25,2.88-.27,3.18l-.22,2.53,5.28-6.13a4.45,4.45,0,0,0,1.39-3.16,6.08,6.08,0,0,0-1.5-3.12l.38-.43,6.85,6.35-10.35,12-3-2.55-.15-4.63a26,26,0,0,0-1.06-7.41,10.7,10.7,0,0,0-3.19-4.67,9,9,0,0,0-3.51-2.17,2.29,2.29,0,0,0-2.24.91,2.56,2.56,0,0,0-.8,2.12,2.47,2.47,0,0,0,.73,1.43,3.49,3.49,0,0,0,1.08.66l.66-.77a4.83,4.83,0,0,1,1.46.91,2.17,2.17,0,0,1,.75,1.76,3.3,3.3,0,0,1-.9,2.16,2.66,2.66,0,0,1-2.08,1,3.44,3.44,0,0,1-2.19-.89A4.42,4.42,0,0,1,227.24,223.08Z" transform="translate(1.8 1.8)"/><path class="cls-2" d="M268.35,202.59l-.59-.26,1.29-2.9-4.93-2.19-3.71,8.35-.58-.26-11.61-15.56,2.37-5.33,15.31,6.8,1.35-3.05L264.57,187l.26-.58,5.7,2.53-.26.59-2.28-1-1.35,3,4.93,2.19.94-2.13.59.27Zm-8.24,1.69,3.27-7.37-13-5.76Z" transform="translate(1.8 1.8)"/><path class="cls-2" d="M128.28,85q0,9.44.16,14.73c.11,3.54.28,6.68.5,9.44a30.57,30.57,0,0,0-5-.5c-2.48-.11-5.33-.19-8.53-.25s-6.34-.08-9.43-.08H88.38l-2,32a69,69,0,0,1,8.11-3.4,34.28,34.28,0,0,1,11.25-1.57q10.09,0,16.56,3.31a22,22,0,0,1,9.6,9.1,27.08,27.08,0,0,1,3.14,13.08,32.42,32.42,0,0,1-4.8,17.38,44.53,44.53,0,0,1-12.83,13.33,66,66,0,0,1-37,11.5v-3a43.3,43.3,0,0,0,14.23-2.4,38.41,38.41,0,0,0,12.5-7.12A34.56,34.56,0,0,0,116,178.84a37.82,37.82,0,0,0,3.31-16.38q0-10.44-5.38-16.31t-15.48-5.87a29.29,29.29,0,0,0-7.2.74,61.94,61.94,0,0,0-6.37,2.07l-1.66-1L86.4,92.77a38.66,38.66,0,0,0,4.22.5c1.6.11,3.17.16,4.72.16H114q6.78,0,8.61-1.9T125.13,85Z" transform="translate(1.8 1.8)"/><path class="cls-2" d="M146.15,92.6a35.46,35.46,0,0,0,5.46.5c2.65.11,5.69.2,9.11.25s6.78.08,10.1.08h36.74v3.48a176.1,176.1,0,0,1-8.36,17.38q-4.87,8.94-9.6,19.12a129.31,129.31,0,0,0-7.78,22,99,99,0,0,0-2.89,26.07c0,1.76,0,3.42.16,5s.22,3,.33,4.3.17,2.59.17,3.81a8.74,8.74,0,0,1-2.15,6,7.21,7.21,0,0,1-5.63,2.4,6.24,6.24,0,0,1-5.63-2.81,11.59,11.59,0,0,1-1.82-6.46,80.27,80.27,0,0,1,2.9-21.68,127.76,127.76,0,0,1,7.53-20.28q4.64-9.84,10.18-19.2t10.92-18.21q5.38-8.85,9.69-17.46l-4.64,10.43H160.72c-4.53,0-7.4.6-8.61,1.82s-2,3.42-2.48,6.62h-2.82q0-8.77-.16-14.07T146.15,92.6Z" transform="translate(1.8 1.8)"/><circle class="cls-2" cx="22.24" cy="136.13" r="5.63"/><circle class="cls-2" cx="269.36" cy="136.13" r="5.63"/></svg>